<?xml version="1.0" standalone="no"?>
<!DOCTYPE svg PUBLIC "-//W3C//DTD SVG 20010904//EN"
 "http://www.w3.org/TR/2001/REC-SVG-20010904/DTD/svg10.dtd">
<svg version="1.0" xmlns="http://www.w3.org/2000/svg"
 width="512.000000pt" height="512.000000pt" viewBox="0 0 512.000000 512.000000"
 preserveAspectRatio="xMidYMid meet">
<metadata>
Created by potrace 1.14, written by Peter Selinger 2001-2017
</metadata>
<g transform="translate(0.000000,512.000000) scale(0.100000,-0.100000)"
fill="#000000" stroke="none">
<path d="M1 3346 c2 -2 39 -18 82 -35 123 -49 289 -134 374 -192 43 -30 117
-92 164 -140 176 -175 234 -361 180 -568 l-19 -73 36 6 c91 14 516 19 635 7
467 -48 804 -207 977 -462 49 -71 94 -166 111 -233 6 -25 15 -46 19 -46 4 0
13 21 19 46 17 67 62 162 111 233 173 255 510 414 977 462 119 12 544 7 635
-7 l36 -6 -19 73 c-54 207 4 393 180 568 47 48 121 110 164 140 85 58 251 143
374 192 43 17 80 33 82 35 2 2 -387 4 -866 4 l-869 0 -17 -73 c-31 -131 -97
-242 -164 -275 -55 -28 -255 -74 -344 -80 -73 -4 -76 -3 -97 23 -16 20 -22 42
-22 75 0 56 -29 232 -40 243 -7 7 -40 -115 -40 -148 0 -9 -13 -10 -51 -4 -29
5 -73 4 -101 -1 -65 -13 -68 -13 -68 4 0 35 -33 157 -40 145 -4 -8 -15 -79
-25 -158 -22 -169 -29 -181 -102 -181 -70 0 -282 43 -356 72 -62 24 -132 143
-163 281 l-18 77 -870 0 c-478 0 -867 -2 -865 -4z"/>
</g>
</svg>
